<svg xmlns="http://www.w3.org/2000/svg" width="16" height="16" viewBox="0 0 16 16" fill="none"><path d="M8 0C3.58172 0 0 3.58172 0 8C0 12.4183 3.58172 16 8 16C12.4183 16 16 12.4183 16 8C16 3.58172 12.4183 0 8 0ZM13.8047 5.5H11.5234C11.3203 4.49219 10.9766 3.52344 10.5078 2.63281C12.0547 3.21094 13.3125 4.21875 13.8047 5.5ZM8 1.5C8.71875 2.42188 9.28125 3.51562 9.63281 4.75H6.36719C6.71875 3.51562 7.28125 2.42188 8 1.5ZM1.5 8C1.5 7.60938 1.54688 7.22656 1.625 6.85938H4.17969C4.14062 7.23438 4.11719 7.61719 4.11719 8C4.11719 8.38281 4.14062 8.76562 4.17969 9.14062H1.625C1.54688 8.77344 1.5 8.39062 1.5 8ZM2.19531 10.5H4.47656C4.67969 11.5078 5.02344 12.4766 5.49219 13.3672C3.94531 12.7891 2.6875 11.7812 2.19531 10.5ZM4.47656 5.5H2.19531C2.6875 4.21875 3.94531 3.21094 5.49219 2.63281C5.02344 3.52344 4.67969 4.49219 4.47656 5.5ZM8 14.5C7.28125 13.5781 6.71875 12.4844 6.36719 11.25H9.63281C9.28125 12.4844 8.71875 13.5781 8 14.5ZM10.0078 9.75H5.99219C5.94531 9.35938 5.91406 8.96875 5.91406 8C5.91406 7.03125 5.94531 6.64062 5.99219 6.25H10.0078C10.0547 6.64062 10.0859 7.03125 10.0859 8C10.0859 8.96875 10.0547 9.35938 10.0078 9.75ZM10.5078 13.3672C10.9766 12.4766 11.3203 11.5078 11.5234 10.5H13.8047C13.3125 11.7812 12.0547 12.7891 10.5078 13.3672ZM11.8203 9.14062C11.8594 8.76562 11.8828 8.38281 11.8828 8C11.8828 7.61719 11.8594 7.23438 11.8203 6.85938H14.375C14.4531 7.22656 14.5 7.60938 14.5 8C14.5 8.39062 14.4531 8.77344 14.375 9.14062H11.8203Z" fill="currentColor"/></svg>
